<?xml version="1.0" encoding="utf-8"?>
<!-- Generator: Adobe Illustrator 16.2.1, SVG Export Plug-In . SVG Version: 6.00 Build 0)  -->
<!DOCTYPE svg PUBLIC "-//W3C//DTD SVG 1.1//EN" "http://www.w3.org/Graphics/SVG/1.1/DTD/svg11.dtd">
<svg version="1.1" id="Layer_1" xmlns="http://www.w3.org/2000/svg" xmlns:xlink="http://www.w3.org/1999/xlink" x="0px" y="0px"
	 viewBox="90 170 665 260"  xml:space="preserve">
<path fill="#039E49" d="M299.7,261.48l0.06-1.02c0-25.24-21.17-47.03-51.33-56.53c13.01,12.69,22.13,32.73,24.42,56.5h-0.02
	c0.04,0.35,0.08,0.7,0.11,1.05h-10.02c-2.8-29.06-17.18-52.45-35.58-60.02c7.93,18.09,9.15,51.57,9.42,60.02l-9.41-0.13
	c-1.31-40.94-9.32-60.57-12.82-62.41c-4.69,2.21-13.13,28.3-13.13,72.81v132.94h-9.56V271.75c0-21.32,2.35-53.09,9.94-70.32
	c-0.18,0.07-0.37,0.15-0.55,0.23c-0.39,0.16-0.77,0.33-1.15,0.51c-0.72,0.33-1.42,0.69-2.12,1.07c-0.11,0.05-0.21,0.11-0.31,0.17
	c-0.32,0.17-0.63,0.35-0.94,0.54c-2.6,1.53-5.09,3.38-7.45,5.53c-0.28,0.25-0.57,0.52-0.85,0.78c-0.41,0.39-0.81,0.78-1.21,1.19
	c-0.3,0.3-0.6,0.61-0.9,0.93c-1.52,1.61-2.97,3.34-4.35,5.19c-0.18,0.24-0.36,0.48-0.53,0.72c-1.63,2.24-3.16,4.65-4.58,7.21
	c-0.23,0.41-0.46,0.83-0.68,1.26c-0.08,0.14-0.15,0.29-0.23,0.43c-0.39,0.75-0.77,1.51-1.14,2.28c-0.07,0.14-0.13,0.29-0.2,0.43
	c-0.19,0.39-0.37,0.78-0.55,1.18c-0.22,0.48-0.44,0.97-0.65,1.47c-0.22,0.49-0.43,0.99-0.62,1.49c-0.18,0.41-0.34,0.81-0.49,1.22
	c-0.06,0.15-0.12,0.3-0.18,0.45c-0.33,0.85-0.65,1.72-0.95,2.59c-0.04,0.11-0.08,0.23-0.12,0.35c-0.18,0.52-0.36,1.05-0.53,1.58
	s-0.34,1.06-0.5,1.6c-0.54,1.76-1.03,3.56-1.47,5.4c-0.1,0.4-0.19,0.8-0.28,1.21c-0.1,0.4-0.18,0.79-0.27,1.19
	c-0.07,0.34-0.14,0.68-0.21,1.02c-0.32,1.54-0.6,3.11-0.84,4.69c-0.19,1.17-0.35,2.35-0.49,3.55c-0.08,0.59-0.14,1.19-0.2,1.8
	c-0.03,0.24-0.06,0.49-0.07,0.74c-0.09,0.85-0.16,1.71-0.22,2.57c-0.04,0.51-0.07,1.02-0.1,1.53c-0.03,0.49-0.06,0.98-0.08,1.47
	c-0.01,0.41-0.03,0.81-0.04,1.22c-0.02,0.55-0.03,1.11-0.04,1.66c-0.01,0.62-0.02,1.25-0.02,1.87v132.94h-9.56l-0.01-132.94
	c0-1.9,0.05-3.79,0.14-5.66c0.02-0.49,0.05-0.99,0.08-1.48c0.02-0.35,0.04-0.7,0.07-1.05c0.15-2.22,0.37-4.41,0.66-6.57
	c0.05-0.45,0.11-0.89,0.18-1.33c0.06-0.49,0.13-0.98,0.21-1.46c0.26-1.69,0.56-3.36,0.89-5.01c0.08-0.38,0.16-0.76,0.24-1.14
	c0.09-0.42,0.18-0.83,0.27-1.24c0.6-2.62,1.28-5.18,2.05-7.68c0.16-0.53,0.33-1.06,0.5-1.58c0.16-0.49,0.32-0.98,0.49-1.46
	c0.2-0.6,0.41-1.2,0.63-1.79c0.66-1.82,1.37-3.61,2.13-5.35c0.19-0.45,0.39-0.88,0.59-1.32c0.23-0.52,0.47-1.03,0.71-1.54
	c0.19-0.42,0.39-0.83,0.6-1.24c0.17-0.34,0.33-0.67,0.51-1.01c0.26-0.53,0.54-1.06,0.82-1.58c0.35-0.66,0.71-1.31,1.08-1.95
	c0.29-0.52,0.59-1.03,0.9-1.54c0.17-0.3,0.35-0.59,0.53-0.88c0.61-1,1.24-1.98,1.89-2.93c0.14-0.2,0.27-0.4,0.41-0.6
	c0.3-0.44,0.61-0.87,0.92-1.3c0.02-0.04,0.05-0.08,0.08-0.12c0.41-0.56,0.81-1.11,1.23-1.64c0.42-0.56,0.86-1.11,1.3-1.65
	c0.33-0.41,0.66-0.81,1-1.2c0.06-0.08,0.13-0.16,0.2-0.24c0.33-0.4,0.68-0.79,1.03-1.17c0.02-0.03,0.05-0.06,0.08-0.09
	c0.31-0.35,0.62-0.69,0.95-1.02c0.31-0.35,0.64-0.68,0.97-1.02c0.43-0.44,0.87-0.87,1.31-1.3c-30.72,9.32-52.34,31.29-52.34,56.85
	l-0.06,144.23h-9.51V260.46c0-39.24,42.49-71.17,94.74-71.18h0.01l0.01,0.68l0.01,0.33v-0.49l0.02-0.52c0.11,0,0.22,0,0.33,0.01
	v-0.01c52.03,0.15,94.37,33.02,94.37,72.12L299.7,261.48z"/>
<path fill="#039E49" d="M214.61,189.28v1.01l-0.01-0.33l-0.01-0.68C214.6,189.28,214.6,189.28,214.61,189.28z"/>
<rect x="299.759" y="369.004" fill="#039E49" width="9.567" height="35.688"/>
<polyline fill="none" stroke="#039E49" stroke-width="2" stroke-miterlimit="10" points="268.615,369.004 268.615,399.907 
	273.399,399.907 "/>
<polygon fill="#039E49" points="273.399,404.691 263.881,404.691 263.832,369.004 273.399,369.004 "/>
<polygon fill="#039E49" points="214.61,189.8 214.61,190.29 214.6,189.96 "/>
<polygon fill="#039E49" points="237.57,404.691 228.049,404.691 228.049,369.004 237.617,369.004 "/>
<path fill="none" stroke="#039E49" stroke-width="2" stroke-miterlimit="10" d="M165.676,399.907"/>
<polygon fill="#039E49" points="156.11,404.69 156.1,404.69 156.1,271.75 "/>
<polygon fill="#039E49" points="165.68,404.69 165.67,404.69 165.67,271.75 "/>
<g>
	<path fill="#393E44" d="M217.176,312.239c0-4.335,0.715-8.28,2.145-11.829c1.43-3.548,3.408-6.572,5.935-9.074
		c2.528-2.502,5.539-4.429,9.035-5.781s7.339-2.03,11.525-2.03c4.237-0.049,8.117,0.575,11.64,1.875
		c3.522,1.304,6.559,3.205,9.114,5.707c2.551,2.502,4.543,5.513,5.973,9.035c1.427,3.522,2.144,7.454,2.144,11.794
		c0,4.237-0.717,8.092-2.144,11.562c-1.43,3.471-3.422,6.456-5.973,8.96c-2.556,2.499-5.592,4.452-9.114,5.858
		c-3.522,1.401-7.402,2.13-11.64,2.182c-4.186,0-8.028-0.678-11.525-2.032c-3.497-1.351-6.507-3.266-9.035-5.741
		c-2.527-2.477-4.505-5.447-5.935-8.923C217.891,320.33,217.176,316.477,217.176,312.239z M227.285,311.627
		c0,2.911,0.446,5.592,1.339,8.04c0.892,2.453,2.156,4.569,3.791,6.358c1.633,1.784,3.585,3.19,5.858,4.209
		c2.271,1.023,4.812,1.532,7.62,1.532s5.36-0.509,7.657-1.532c2.298-1.019,4.263-2.425,5.898-4.209
		c1.633-1.789,2.896-3.905,3.789-6.358c0.895-2.448,1.341-5.129,1.341-8.04c0-2.705-0.446-5.229-1.341-7.579
		c-0.892-2.348-2.156-4.403-3.789-6.165c-1.635-1.761-3.6-3.139-5.898-4.134c-2.296-0.995-4.849-1.495-7.657-1.495
		s-5.349,0.5-7.62,1.495c-2.272,0.995-4.225,2.373-5.858,4.134c-1.635,1.761-2.899,3.817-3.791,6.165
		C227.731,306.397,227.285,308.922,227.285,311.627z"/>
	<path fill="#393E44" d="M278.36,302.363h8.731v5.513h0.152c1.327-2.245,3.114-3.878,5.361-4.9c2.247-1.021,4.671-1.532,7.273-1.532
		c2.808,0,5.335,0.5,7.582,1.494c2.247,0.995,4.16,2.362,5.744,4.098c1.581,1.733,2.782,3.774,3.599,6.124
		c0.815,2.351,1.224,4.878,1.224,7.582c0,2.705-0.435,5.232-1.301,7.583c-0.869,2.345-2.082,4.386-3.637,6.124
		c-1.558,1.733-3.436,3.102-5.629,4.097c-2.195,0.995-4.594,1.49-7.199,1.49c-1.736,0-3.268-0.177-4.595-0.532
		c-1.327-0.359-2.501-0.817-3.522-1.378c-1.021-0.561-1.89-1.163-2.602-1.804c-0.717-0.635-1.303-1.261-1.761-1.873h-0.231v22.13
		h-9.189V302.363z M308.838,320.741c0-1.429-0.243-2.808-0.727-4.134c-0.486-1.327-1.201-2.504-2.144-3.522
		c-0.946-1.023-2.082-1.841-3.408-2.453c-1.329-0.611-2.833-0.92-4.518-0.92c-1.687,0-3.19,0.309-4.52,0.92
		c-1.327,0.612-2.462,1.43-3.406,2.453c-0.946,1.019-1.661,2.195-2.145,3.522c-0.486,1.326-0.729,2.705-0.729,4.134
		c0,1.43,0.243,2.808,0.729,4.135c0.484,1.327,1.199,2.499,2.145,3.522c0.944,1.023,2.079,1.836,3.406,2.448
		c1.329,0.616,2.833,0.92,4.52,0.92c1.684,0,3.188-0.304,4.518-0.92c1.327-0.612,2.462-1.425,3.408-2.448
		c0.943-1.023,1.658-2.195,2.144-3.522C308.595,323.549,308.838,322.171,308.838,320.741z"/>
	<path fill="#393E44" d="M330.127,323.956c0.306,2.756,1.378,4.9,3.214,6.433c1.838,1.532,4.06,2.299,6.664,2.299
		c2.296,0,4.224-0.473,5.781-1.416c1.556-0.943,2.922-2.135,4.097-3.564l6.584,4.98c-2.144,2.653-4.543,4.545-7.199,5.666
		c-2.654,1.121-5.436,1.682-8.346,1.682c-2.756,0-5.36-0.457-7.811-1.378c-2.45-0.915-4.569-2.219-6.356-3.905
		c-1.787-1.682-3.205-3.714-4.249-6.087c-1.048-2.374-1.572-5.013-1.572-7.924c0-2.91,0.523-5.554,1.572-7.928
		c1.044-2.373,2.462-4.4,4.249-6.087c1.787-1.684,3.906-2.985,6.356-3.903c2.45-0.92,5.055-1.38,7.811-1.38
		c2.553,0,4.887,0.448,7.008,1.341c2.116,0.895,3.929,2.184,5.436,3.868c1.506,1.682,2.681,3.765,3.522,6.241
		c0.843,2.476,1.264,5.32,1.264,8.535v2.527H330.127z M348.963,317.065c-0.051-2.705-0.892-4.836-2.527-6.396
		c-1.633-1.556-3.905-2.336-6.813-2.336c-2.759,0-4.94,0.794-6.547,2.373c-1.609,1.584-2.593,3.704-2.948,6.358H348.963z"/>
	<path fill="#393E44" d="M362.898,302.363h8.731v5.896h0.152c0.869-1.838,2.196-3.431,3.982-4.786
		c1.787-1.353,4.211-2.029,7.274-2.029c2.45,0,4.531,0.411,6.241,1.226c1.71,0.818,3.102,1.89,4.174,3.217
		c1.072,1.327,1.838,2.859,2.296,4.593c0.46,1.737,0.689,3.55,0.689,5.438v23.204h-9.189v-18.607c0-1.023-0.051-2.158-0.152-3.41
		c-0.103-1.252-0.372-2.425-0.804-3.522c-0.435-1.098-1.112-2.014-2.03-2.756c-0.92-0.738-2.17-1.112-3.753-1.112
		c-1.53,0-2.819,0.257-3.866,0.767c-1.046,0.514-1.915,1.2-2.604,2.069c-0.689,0.868-1.187,1.863-1.493,2.985
		c-0.306,1.125-0.46,2.298-0.46,3.521v20.065h-9.189V302.363z"/>
	<path fill="#393E44" d="M441.16,297.615c-1.992-2.145-3.92-3.572-5.781-4.289c-1.866-0.712-3.742-1.072-5.629-1.072
		c-2.809,0-5.35,0.5-7.619,1.495c-2.273,0.995-4.226,2.373-5.859,4.134c-1.635,1.761-2.899,3.817-3.791,6.165
		c-0.892,2.35-1.338,4.874-1.338,7.579c0,2.911,0.446,5.592,1.338,8.04c0.892,2.453,2.156,4.569,3.791,6.358
		c1.633,1.784,3.585,3.19,5.859,4.209c2.27,1.023,4.811,1.532,7.619,1.532c2.193,0,4.326-0.523,6.393-1.569
		c2.07-1.047,3.994-2.719,5.784-5.018l7.962,5.667c-2.45,3.373-5.438,5.82-8.96,7.353s-7.273,2.299-11.256,2.299
		c-4.187,0-8.028-0.678-11.525-2.032c-3.497-1.351-6.507-3.266-9.035-5.741c-2.527-2.477-4.506-5.447-5.936-8.923
		c-1.429-3.472-2.144-7.325-2.144-11.562c0-4.335,0.715-8.28,2.144-11.829c1.43-3.548,3.408-6.572,5.936-9.074
		s5.538-4.429,9.035-5.781c3.497-1.353,7.339-2.03,11.525-2.03c3.677,0,7.084,0.652,10.224,1.953
		c3.14,1.301,6.062,3.511,8.767,6.625L441.16,297.615z"/>
	<path fill="#393E44" d="M477.379,334.065h-0.229c-1.331,2.093-3.013,3.61-5.055,4.555c-2.041,0.943-4.288,1.415-6.741,1.415
		c-1.682,0-3.326-0.229-4.933-0.687c-1.612-0.458-3.042-1.149-4.289-2.069c-1.254-0.916-2.261-2.064-3.027-3.443
		c-0.766-1.378-1.149-2.989-1.149-4.825c0-1.99,0.357-3.687,1.072-5.093c0.715-1.401,1.673-2.578,2.871-3.522
		c1.2-0.943,2.593-1.695,4.177-2.261c1.578-0.561,3.223-0.98,4.938-1.262c1.71-0.28,3.434-0.457,5.172-0.537
		c1.729-0.074,3.363-0.111,4.896-0.111h2.298v-0.995c0-2.299-0.794-4.022-2.373-5.172c-1.583-1.149-3.597-1.724-6.05-1.724
		c-1.938,0-3.751,0.346-5.433,1.037c-1.691,0.687-3.145,1.621-4.368,2.793l-4.825-4.825c2.041-2.091,4.428-3.598,7.161-4.516
		c2.733-0.92,5.555-1.38,8.46-1.38c2.607,0,4.798,0.297,6.588,0.883c1.784,0.586,3.265,1.338,4.438,2.259
		c1.178,0.918,2.084,1.979,2.719,3.174c0.641,1.201,1.103,2.415,1.383,3.64c0.28,1.224,0.444,2.41,0.495,3.56
		c0.052,1.149,0.075,2.158,0.075,3.027v21.135h-8.27V334.065z M476.847,322.657h-1.915c-1.28,0-2.71,0.051-4.289,0.149
		c-1.583,0.103-3.078,0.346-4.479,0.729c-1.406,0.383-2.593,0.943-3.564,1.687c-0.968,0.738-1.453,1.771-1.453,3.103
		c0,0.863,0.191,1.593,0.574,2.182c0.384,0.584,0.879,1.083,1.495,1.49c0.612,0.41,1.299,0.705,2.065,0.883
		c0.766,0.177,1.532,0.266,2.298,0.266c3.168,0,5.504-0.752,7.008-2.256c1.504-1.509,2.261-3.564,2.261-6.167V322.657z"/>
	<path fill="#393E44" d="M528.838,302.363v33.463c0,3.317-0.406,6.316-1.225,8.998c-0.817,2.682-2.078,4.951-3.788,6.815
		s-3.868,3.303-6.476,4.326c-2.602,1.019-5.689,1.532-9.264,1.532c-3.42,0-6.662-0.435-9.722-1.304
		c-3.064-0.868-5.9-2.447-8.502-4.746l5.513-7.507c1.84,1.686,3.751,2.989,5.746,3.905c1.99,0.92,4.288,1.378,6.886,1.378
		c2.195,0,4.046-0.304,5.555-0.916c1.504-0.611,2.704-1.457,3.602-2.527c0.888-1.074,1.532-2.363,1.911-3.868
		c0.383-1.504,0.574-3.177,0.574-5.017v-2.677h-0.149c-1.331,1.784-3.093,3.125-5.288,4.018c-2.196,0.892-4.438,1.341-6.736,1.341
		c-2.757,0-5.261-0.496-7.503-1.495c-2.252-0.995-4.177-2.331-5.784-4.018c-1.606-1.687-2.85-3.677-3.713-5.976
		c-0.869-2.293-1.304-4.746-1.304-7.349c0-2.704,0.411-5.231,1.224-7.582c0.817-2.35,2.019-4.391,3.602-6.124
		c1.584-1.735,3.48-3.103,5.704-4.098c2.224-0.994,4.761-1.494,7.62-1.494c2.602,0,5.031,0.512,7.273,1.532
		c2.247,1.022,4.036,2.655,5.363,4.9h0.149v-5.513H528.838z M509.235,309.712c-1.635,0-3.116,0.271-4.442,0.804
		c-1.327,0.537-2.463,1.279-3.41,2.224c-0.944,0.943-1.683,2.093-2.215,3.442c-0.542,1.355-0.804,2.85-0.804,4.48
		c0,1.48,0.262,2.859,0.804,4.135c0.532,1.279,1.285,2.401,2.256,3.373c0.968,0.967,2.117,1.732,3.443,2.293
		c1.327,0.565,2.757,0.846,4.289,0.846c1.687,0,3.204-0.28,4.56-0.846c1.35-0.561,2.499-1.312,3.447-2.256
		c0.944-0.943,1.668-2.079,2.177-3.41c0.514-1.327,0.767-2.757,0.767-4.284c0-3.219-0.968-5.821-2.906-7.812
		C515.257,310.707,512.604,309.712,509.235,309.712z"/>
	<path fill="#393E44" d="M541.624,323.956c0.308,2.756,1.383,4.9,3.214,6.433c1.841,1.532,4.064,2.299,6.666,2.299
		c2.294,0,4.224-0.473,5.779-1.416c1.561-0.943,2.925-2.135,4.102-3.564l6.582,4.98c-2.144,2.653-4.545,4.545-7.198,5.666
		s-5.438,1.682-8.344,1.682c-2.757,0-5.363-0.457-7.812-1.378c-2.452-0.915-4.568-2.219-6.357-3.905
		c-1.789-1.682-3.205-3.714-4.247-6.087c-1.051-2.374-1.574-5.013-1.574-7.924c0-2.91,0.523-5.554,1.574-7.928
		c1.042-2.373,2.458-4.4,4.247-6.087c1.789-1.684,3.905-2.985,6.357-3.903c2.448-0.92,5.055-1.38,7.812-1.38
		c2.551,0,4.887,0.448,7.007,1.341c2.112,0.895,3.925,2.184,5.434,3.868c1.509,1.682,2.682,3.765,3.522,6.241
		c0.846,2.476,1.267,5.32,1.267,8.535v2.527H541.624z M560.46,317.065c-0.047-2.705-0.888-4.836-2.522-6.396
		c-1.635-1.556-3.906-2.336-6.816-2.336c-2.761,0-4.938,0.794-6.545,2.373c-1.611,1.584-2.598,3.704-2.952,6.358H560.46z"/>
	<path fill="#393E44" d="M594.077,284.903h21.368c3.569,0,7.017,0.549,10.334,1.646c3.321,1.098,6.255,2.771,8.811,5.015
		c2.551,2.247,4.592,5.069,6.124,8.462c1.532,3.396,2.299,7.391,2.299,11.982c0,4.648-0.883,8.666-2.64,12.062
		c-1.766,3.396-4.036,6.204-6.82,8.423c-2.785,2.22-5.868,3.878-9.264,4.976c-3.396,1.098-6.728,1.649-9.993,1.649h-20.219V284.903z
		 M610.923,330.389c3.019,0,5.858-0.346,8.54-1.032c2.682-0.691,5.018-1.762,7.008-3.219c1.99-1.453,3.56-3.341,4.709-5.667
		c1.148-2.322,1.724-5.139,1.724-8.461c0-3.265-0.51-6.072-1.532-8.423c-1.023-2.347-2.435-4.248-4.247-5.704
		c-1.812-1.455-3.961-2.527-6.438-3.216c-2.476-0.689-5.194-1.033-8.151-1.033h-8.807v36.754H610.923z"/>
	<path fill="#393E44" d="M669.734,334.065h-0.229c-1.327,2.093-3.014,3.61-5.055,4.555c-2.042,0.943-4.289,1.415-6.737,1.415
		c-1.687,0-3.335-0.229-4.942-0.687s-3.036-1.149-4.288-2.069c-1.253-0.916-2.257-2.064-3.022-3.443
		c-0.767-1.378-1.149-2.989-1.149-4.825c0-1.99,0.359-3.687,1.069-5.093c0.72-1.401,1.673-2.578,2.878-3.522
		c1.196-0.943,2.588-1.695,4.167-2.261c1.584-0.561,3.232-0.98,4.942-1.262c1.71-0.28,3.43-0.457,5.167-0.537
		c1.738-0.074,3.373-0.111,4.905-0.111h2.294v-0.995c0-2.299-0.789-4.022-2.373-5.172s-3.602-1.724-6.05-1.724
		c-1.943,0-3.751,0.346-5.438,1.037c-1.682,0.687-3.139,1.621-4.363,2.793l-4.825-4.825c2.042-2.091,4.429-3.598,7.161-4.516
		c2.729-0.92,5.551-1.38,8.461-1.38c2.602,0,4.798,0.297,6.587,0.883s3.266,1.338,4.442,2.259c1.173,0.918,2.074,1.979,2.719,3.174
		c0.636,1.201,1.094,2.415,1.374,3.64c0.28,1.224,0.448,2.41,0.5,3.56c0.051,1.149,0.079,2.158,0.079,3.027v21.135h-8.273V334.065z
		 M669.197,322.657h-1.916c-1.271,0-2.699,0.051-4.288,0.149c-1.579,0.103-3.074,0.346-4.476,0.729
		c-1.406,0.383-2.593,0.943-3.56,1.687c-0.972,0.738-1.458,1.771-1.458,3.103c0,0.863,0.191,1.593,0.575,2.182
		c0.383,0.584,0.883,1.083,1.49,1.49c0.616,0.41,1.308,0.705,2.074,0.883c0.761,0.177,1.527,0.266,2.294,0.266
		c3.162,0,5.498-0.752,7.007-2.256c1.505-1.509,2.257-3.564,2.257-6.167V322.657z"/>
	<path fill="#393E44" d="M679.231,310.174v-7.811h7.577v-10.645h9.194v10.645h10.104v7.811h-10.104v16.08
		c0,1.836,0.346,3.294,1.032,4.363c0.688,1.074,2.051,1.607,4.098,1.607c0.812,0,1.709-0.084,2.682-0.267
		c0.967-0.177,1.732-0.472,2.293-0.878v7.731c-0.967,0.463-2.153,0.78-3.56,0.958s-2.64,0.266-3.714,0.266
		c-2.448,0-4.457-0.266-6.013-0.803c-1.556-0.533-2.779-1.351-3.677-2.448c-0.892-1.098-1.504-2.462-1.836-4.097
		c-0.331-1.636-0.5-3.523-0.5-5.667v-16.847H679.231z"/>
	<path fill="#393E44" d="M733.601,334.065h-0.233c-1.327,2.093-3.009,3.61-5.055,4.555c-2.037,0.943-4.289,1.415-6.736,1.415
		c-1.683,0-3.332-0.229-4.938-0.687c-1.612-0.458-3.041-1.149-4.288-2.069c-1.252-0.916-2.257-2.064-3.023-3.443
		c-0.766-1.378-1.148-2.989-1.148-4.825c0-1.99,0.354-3.687,1.069-5.093c0.715-1.401,1.673-2.578,2.873-3.522
		c1.196-0.943,2.588-1.695,4.172-2.261c1.584-0.561,3.228-0.98,4.938-1.262c1.709-0.28,3.434-0.457,5.171-0.537
		c1.733-0.074,3.368-0.111,4.9-0.111h2.299v-0.995c0-2.299-0.794-4.022-2.373-5.172c-1.589-1.149-3.603-1.724-6.055-1.724
		c-1.938,0-3.747,0.346-5.434,1.037c-1.687,0.687-3.144,1.621-4.368,2.793l-4.82-4.825c2.037-2.091,4.429-3.598,7.156-4.516
		c2.733-0.92,5.555-1.38,8.465-1.38c2.603,0,4.794,0.297,6.588,0.883c1.784,0.586,3.261,1.338,4.438,2.259
		c1.178,0.918,2.079,1.979,2.719,3.174c0.636,1.201,1.098,2.415,1.379,3.64c0.28,1.224,0.443,2.41,0.5,3.56
		c0.046,1.149,0.074,2.158,0.074,3.027v21.135h-8.269V334.065z M733.063,322.657h-1.916c-1.275,0-2.704,0.051-4.288,0.149
		c-1.584,0.103-3.079,0.346-4.48,0.729s-2.588,0.943-3.56,1.687c-0.972,0.738-1.458,1.771-1.458,3.103
		c0,0.863,0.196,1.593,0.58,2.182c0.383,0.584,0.878,1.083,1.49,1.49c0.611,0.41,1.303,0.705,2.069,0.883
		c0.767,0.177,1.532,0.266,2.298,0.266c3.163,0,5.499-0.752,7.008-2.256c1.504-1.509,2.257-3.564,2.257-6.167V322.657z"/>
</g>
</svg>
